{"title":"Air Force One (1997) Harrison Ford (Widescreen, MULTISUBS)","uid":4442924,"size":746647308,"categoryP":"video","categoryS":"movies","magnet":"?xt=urn:btih:5176f8d0e701e9732d9abf2717e5e7bdb37f619f&amp;dn=Air+Force+One+%281997%29+Harrison+Ford+%28Widescreen%2C+MULTISUBS%29&amp;tr=udp%3A%2F%2Ftracker.openbittorrent.com%3A80&amp;tr=udp%3A%2F%2Fopen.demonii.com%3A1337&amp;tr=udp%3A%2F%2Ftracker.coppersurfer.tk%3A6969&amp;tr=udp%3A%2F%2Fexodus.desync.com%3A6969","seeders":3,"leechers":3,"uploader":"Kuthumi","files":-1,"time":1223911359,"description":" &lt;a href=&quot;http://www.imdb.com/title/tt0118571/&quot; rel=&quot;nofollow&quot; target=&quot;_NEW&quot;&gt;http://www.imdb.com/title/tt0118571/&lt;/a&gt;\n\nOptional subtitles in separate idx/sub files:\nDanish, English, Finnish, German, French, Hrvatski, Italian, Norwegian, Portugese, Spanish, Swedish. (Sorry, Dutch and Polish friends, your language was not on the DVD.)\n\nI was surprised to see that most rips of this all-time classic have vanished here at PirateBay, and could find no quality widescreen rip with multisubs. So I made one.\n\nMy new ripping procedure now produces decent quality for such a long film compressed into just 700 MiB. I enclose a sample for ye weak in faith.\n\nWidescreen, DVDrip XviD 2-pass 720x288, great stereo AC3.\nBurn tested, runs well in both my standalone DivX players.\n\nFormat/Info                      : Audio Video Interleave\nFile size                        : 696 MiB\nDuration                         : 1h 59mn\nOveral bit rate                  : 813 Kbps\n\nVideo\nFormat                           : MPEG-4 Visual\nFormat profile                   : Streaming Video@L1\nFormat settings, BVOP            : Yes\nFormat settings, QPel            : No\nFormat settings, GMC             : No warppoints\nFormat settings, Matrix          : Default\nMuxing mode                      : Packet Bitstream\nCodec ID                         : XVID\nCodec ID/Hint                    : XviD\nDuration                         : 1h 59mn\nBit rate                         : 676 Kbps\nWidth                            : 720 pixels\nHeight                           : 288 pixels\nDisplay aspect ratio             : 2.500\nFrame rate                       : 25.000 fps\nResolution                       : 8 bits\nColorimetry                      : 4:2:0\nScan type                        : Progressive\nBits/(Pixel*Frame)               : 0.130\nStream size                      : 578 MiB\nWriting library                  : XviD 1.2.0.dev47 (UTC 2006-11-01)\n\nAudio\nFormat                           : MPEG Audio\nFormat version                   : Version 1\nFormat profile                   : Layer 3\nCodec ID                         : 55\nCodec ID/Hint                    : MP3\nDuration                         : 1h 59mn\nBit rate mode                    : Constant\nBit rate                         : 128 Kbps\nMinimum bit rate                 : 128 Kbps\nChannel(s)                       : 2 channels\nSampling rate                    : 48.0 KHz\nResolution                       : 16 bits\nStream size                      : 109 MiB\nWriting library                  : LAME3.97 \nEncoding settings                : CBR\n\nSource: PAL retail 7.3 GiB (note that PAL/NTSC will give no problems for avi files)","torrent":{"xt":"urn:btih:5176f8d0e701e9732d9abf2717e5e7bdb37f619f","amp;dn":"Air+Force+One+%281997%29+Harrison+Ford+%28Widescreen%2C+MULTISUBS%29","amp;tr":["udp%3A%2F%2Ftracker.openbittorrent.com%3A80","udp%3A%2F%2Fopen.demonii.com%3A1337","udp%3A%2F%2Ftracker.coppersurfer.tk%3A6969","udp%3A%2F%2Fexodus.desync.com%3A6969"],"infoHash":"5176f8d0e701e9732d9abf2717e5e7bdb37f619f","infoHashBuffer":{"type":"Buffer","data":[81,118,248,208,231,1,233,115,45,154,191,39,23,229,231,189,179,127,97,159]},"announce":[],"urlList":[]}}